<svg xmlns="http://www.w3.org/2000/svg" viewBox="0 0 430 116.46" role="img" aria-label="Hamerkop System S.C.">
  <path d="M68.66 0.31C64.94 0.69 59.47 1.75 59.65 2.03C59.7 2.1 60.29 2.24 60.98 2.34C62.47 2.59 63.53 2.93 63.17 3.06C63.04 3.13 62.25 3.28 61.43 3.41C58.09 3.96 53.28 6.11 50.97 8.06C50.49 8.47 50.49 8.47 50.88 8.37C52.6 7.9 57.73 7.42 57.54 7.75C57.47 7.85 57.31 7.93 57.17 7.93C56.5 7.93 52.7 10.22 51.8 11.19C51.52 11.47 51.34 11.7 51.39 11.7C51.42 11.7 52.87 11.73 54.57 11.76C56.29 11.8 57.81 11.88 57.99 11.94C58.26 12.06 58.24 12.09 57.83 12.27C57.57 12.37 56.96 12.57 56.5 12.66C56.03 12.78 55.63 12.93 55.63 13.01C55.63 13.07 56.24 13.19 56.99 13.24C58.34 13.35 62.2 14.06 62.88 14.3C63.15 14.4 62.93 14.48 61.91 14.65C61.17 14.76 60.6 14.92 60.63 14.97C60.68 15.04 61.17 15.14 61.75 15.2C62.81 15.3 66.94 16.27 67.84 16.61L68.33 16.81L67.73 17.12C67.07 17.46 66.91 17.76 67.4 17.76C68.31 17.76 72.98 19.59 75.24 20.84C77.52 22.1 78.29 22.76 78.83 23.9C79.36 25.02 79.36 26.13 78.8 27.23C77.88 29.08 76.06 29.93 70.81 30.95C59.42 33.14 46.59 38.89 33.19 47.79C30.39 49.64 27.95 51.39 27.95 51.51C27.95 51.64 30.19 51.41 31.31 51.18C31.75 51.08 32.31 50.97 32.54 50.92C32.76 50.88 32.18 51.13 31.23 51.47C28.87 52.36 26.74 53.31 24.51 54.49C21.74 55.95 17.3 58.67 17.3 58.9C17.3 58.99 20.22 58.42 22.05 57.98C22.28 57.91 21.76 58.19 20.9 58.58C18.33 59.78 12.63 62.68 10.01 64.14C8.67 64.87 7.16 65.71 6.68 65.97C6.13 66.28 5.86 66.51 5.96 66.61C6.32 66.97 8.44 67.14 10.12 66.92C11.03 66.81 11.8 66.76 11.83 66.79C11.88 66.82 11.47 67.02 10.96 67.2C8.78 68.0 4.52 70.67 1.95 72.84C0.43 74.11 0.0 74.65 0.31 74.9C0.57 75.11 1.85 75.54 2.56 75.65C2.87 75.7 3.39 75.79 3.72 75.83L4.32 75.93L2.62 77.65C1.69 78.6 0.92 79.44 0.92 79.52C0.92 79.75 1.93 80.03 3.21 80.13C4.52 80.22 5.16 80.03 8.7 78.54C9.34 78.28 10.14 77.95 10.5 77.82C10.86 77.69 12.34 77.13 13.78 76.57C17.61 75.1 21.28 73.77 21.35 73.84C21.38 73.87 20.35 74.31 19.07 74.82C15.2 76.34 9.27 78.78 6.31 80.06C5.5 80.42 3.29 82.78 3.54 83.03C3.82 83.29 6.57 83.21 7.73 82.9C8.29 82.75 8.8 82.63 8.86 82.63C8.93 82.63 8.73 82.94 8.42 83.34C7.81 84.06 7.14 85.09 7.14 85.29C7.14 85.52 8.7 85.61 9.96 85.45C11.22 85.29 11.35 85.24 13.11 84.06C14.11 83.39 16.22 81.91 17.81 80.78C19.4 79.67 20.79 78.7 20.89 78.64C20.99 78.57 20.9 78.78 20.72 79.11C20.53 79.44 20.41 79.73 20.46 79.78C20.56 79.88 26.1 77.37 30.96 75.03C32.57 74.25 33.93 73.64 33.96 73.67C33.99 73.7 33.55 74.03 32.99 74.41C32.42 74.77 31.81 75.2 31.63 75.33C31.45 75.47 30.91 75.9 30.44 76.26C29.96 76.64 29.62 77.0 29.7 77.08C29.91 77.29 33.35 76.78 35.65 76.23C37.47 75.79 39.66 75.03 41.63 74.2C42.35 73.9 42.32 73.93 41.19 74.84C40.74 75.18 40.4 75.54 40.4 75.62C40.4 76.06 47.77 74.59 51.6 73.39L52.39 73.13L52.28 73.59C52.23 73.84 51.8 74.95 51.36 76.08C50.43 78.41 48.97 81.06 47.64 82.83C47.15 83.49 46.64 84.26 46.53 84.55C46.2 85.3 46.25 87.19 46.61 89.2C47.61 94.66 48.59 103.55 48.59 107.17C48.59 110.34 48.28 110.71 45.28 110.97C42.86 111.19 41.43 111.76 40.84 112.74C40.42 113.48 40.5 113.66 41.05 113.27C41.82 112.73 42.66 112.53 42.99 112.83C43.22 113.04 43.54 113.06 44.9 112.94C45.81 112.86 46.84 112.71 47.2 112.63C48.2 112.37 49.52 112.42 50.11 112.71C50.41 112.88 51.11 113.32 51.69 113.69C52.26 114.09 52.82 114.42 52.93 114.42C53.03 114.42 53.47 114.6 53.9 114.82C54.32 115.05 54.8 115.23 54.98 115.23C55.14 115.23 55.5 115.51 55.78 115.84L56.29 116.46L56.29 115.76C56.29 114.74 55.93 114.19 54.82 113.51C53.6 112.78 53.55 112.53 54.62 112.68C55.78 112.83 59.71 113.17 60.42 113.17C60.93 113.17 60.99 113.2 60.86 113.45C60.52 114.1 60.7 114.25 61.32 113.83C62.12 113.28 62.6 113.19 63.01 113.48C63.27 113.66 63.5 113.69 63.88 113.58C64.17 113.5 64.65 113.43 64.96 113.43C65.27 113.43 66.09 113.27 66.76 113.09C68.54 112.58 69.59 112.71 71.54 113.63C72.39 114.04 73.49 114.46 73.98 114.58C74.47 114.69 75.26 114.92 75.7 115.07C76.16 115.23 76.88 115.4 77.31 115.45C77.88 115.5 78.24 115.64 78.59 115.99C78.85 116.23 79.11 116.4 79.16 116.33C79.32 116.17 78.77 114.82 78.42 114.51C78.26 114.37 77.34 113.96 76.36 113.61C74.15 112.79 73.82 112.51 75.29 112.7C75.88 112.76 78.1 112.84 80.22 112.86C84.24 112.91 84.47 112.94 85.27 113.66L85.66 114.01L85.55 113.43C85.27 111.89 84.3 111.48 80.54 111.29C75.77 111.06 72.85 110.47 71.85 109.57C70.97 108.76 69.67 106.08 65.43 96.23C62.58 89.63 62.68 89.91 62.68 88.1C62.68 86.99 62.6 86.4 62.42 86.04C62.06 85.35 62.19 83.06 62.68 81.24C63.43 78.42 66.07 72.61 67.71 70.15C68.38 69.12 68.59 68.94 70.76 67.61C77.11 63.68 81.9 59.21 85.78 53.57C86.45 52.62 87.01 51.87 87.04 51.9C87.07 51.92 87.02 52.16 86.94 52.42C86.86 52.69 86.75 53.11 86.68 53.39L86.57 53.88L87.09 53.39C88.51 52.03 90.4 48.52 91.53 45.08C91.92 43.94 92.23 43.0 92.25 43.04C92.27 43.05 92.23 43.92 92.15 44.95C92.09 45.99 92.05 46.85 92.09 46.89C92.18 47.0 92.87 44.97 93.31 43.23C93.81 41.32 94.13 39.06 94.13 37.58C94.13 36.58 94.33 36.68 94.64 37.83C94.81 38.4 94.84 38.43 95.0 38.15C95.12 37.94 95.18 36.78 95.18 34.96C95.18 32.65 95.12 31.73 94.82 30.26C94.0 26.2 92.0 21.71 89.76 18.95C89.37 18.48 89.1 18.09 89.17 18.09C89.25 18.09 89.96 18.27 90.74 18.5C92.48 18.97 93.77 19.76 98.56 23.23C102.59 26.16 106.29 28.7 108.32 29.93C110.39 31.18 115.0 33.65 115.27 33.65C115.43 33.65 115.45 33.39 115.37 32.45C115.28 31.47 115.17 31.13 114.69 30.46C113.37 28.51 106.83 21.2 99.59 13.55C97.85 11.71 96.92 10.62 96.92 10.39C96.92 9.76 96.08 7.88 95.33 6.82C93.2 3.8 88.42 1.33 83.08 0.46C80.8 0.1 71.64 0.0 68.66 0.31M90.91 8.08C91.38 8.26 92.0 8.88 92.0 9.17C92.0 9.29 91.76 9.13 91.45 8.81C91.1 8.47 90.73 8.26 90.46 8.26C88.94 8.26 88.15 10.01 89.22 11.07C89.64 11.5 89.81 11.57 90.45 11.5C90.92 11.47 91.12 11.5 91.0 11.62C90.73 11.89 89.58 11.8 89.1 11.43C87.37 10.14 88.89 7.31 90.91 8.08M90.41 9.17C90.56 9.32 90.35 9.73 90.12 9.73C89.89 9.73 89.68 9.32 89.83 9.17C89.89 9.13 90.02 9.08 90.12 9.08C90.22 9.08 90.35 9.13 90.41 9.17M100.16 20.43C102.88 22.66 105.11 24.52 105.11 24.57C105.11 24.72 94.69 16.25 93.4 15.06C92.22 13.96 94.12 15.47 100.16 20.43M106.75 25.9C106.75 26.02 105.47 24.98 105.32 24.75C105.26 24.66 105.55 24.85 105.98 25.2C106.4 25.54 106.75 25.85 106.75 25.9M60.96 73.57C60.6 78.06 60.07 80.85 58.96 84.11C57.91 87.24 57.88 87.09 60.52 92.28C64.48 100.1 67.59 107.68 67.59 109.52C67.59 110.81 67.02 111.22 64.94 111.45C64.19 111.53 63.33 111.7 63.02 111.83C62.53 112.06 62.37 112.04 61.35 111.78C60.75 111.61 59.44 111.42 58.45 111.32C55.52 111.04 53.29 110.43 52.65 109.71C52.18 109.21 51.92 108.37 51.56 106.31C51.1 103.64 50.18 95.74 49.75 90.76C49.61 89.01 49.61 88.97 50.08 87.78C50.47 86.78 50.56 86.38 50.52 85.39C50.47 84.26 50.52 84.09 51.23 82.63C52.16 80.7 53.18 79.11 54.83 76.98C57.98 72.93 58.65 72.39 60.52 72.33L61.07 72.31L60.96 73.57" fill="currentColor"/>
  <g fill="currentColor" font-family="Inter, 'Helvetica Neue', Arial, sans-serif">
    <text x="149.45" y="59" font-size="42" font-weight="800" letter-spacing="0.5">HAMERKOP</text>
    <text x="151.45" y="90" font-size="18.5" font-weight="600" letter-spacing="3.4" opacity="0.6">SYSTEM S.C.</text>
  </g>
</svg>
